<svg viewBox="0 0 197 56" fill="none" xmlns="http://www.w3.org/2000/svg">
<path d="M54.6992 42.1948V14.1094H73.0907V19.5078H60.8864V25.5212H71.2549V30.6805H60.8864V36.728H73.1587V42.1265H54.6992V42.1948Z" fill="#453594"/>
<path d="M75.9121 42.1952V21.0799H79.1417L80.7054 23.0616C82.4052 21.4216 84.4449 20.6016 86.8246 20.6016C91.414 20.6016 94.1336 23.6766 94.1336 28.8359V42.1952H88.4564V29.1434C88.4564 26.8883 87.2665 25.7266 85.5328 25.7266C84.071 25.7266 82.7452 26.41 81.5893 27.7425V42.161H75.9121V42.1952Z" fill="#453594"/>
<path d="M112.015 42.1967L110.452 40.215C108.752 41.855 106.678 42.675 104.298 42.675C99.9811 42.675 96.8535 40.0441 96.8535 34.9532V28.3248C96.8535 25.7964 97.5674 23.8831 98.9612 22.5847C100.355 21.2522 102.157 20.603 104.298 20.603C106.44 20.603 108.208 21.1497 109.568 22.3114V13.9062H115.245V42.1625H112.015V42.1967ZM109.602 35.5341V27.744C108.276 26.4114 106.882 25.7281 105.488 25.7281C104.027 25.7281 102.531 26.8556 102.531 28.7348V34.5091C102.531 36.3883 103.993 37.5158 105.488 37.5158C106.882 37.5158 108.276 36.8324 109.602 35.5341Z" fill="#453594"/>
<path d="M122.044 21.0799L123.608 23.0616C125.41 21.4216 127.449 20.6016 129.761 20.6016C134.078 20.6016 137.206 23.1983 137.206 28.2892V34.9176C137.206 37.446 136.492 39.3593 135.098 40.6919C133.704 42.0244 131.903 42.6736 129.761 42.6736C127.619 42.6736 125.851 42.1269 124.492 40.9652V51.9329H118.814V21.0799H122.044ZM131.529 34.5076V28.7333C131.529 26.8542 130.067 25.7266 128.571 25.7266C127.177 25.7266 125.783 26.41 124.458 27.7425V35.5326C125.783 36.8651 127.177 37.5485 128.571 37.5485C130.067 37.5143 131.529 36.421 131.529 34.5076Z" fill="#453594"/>
<path d="M153.728 42.1962L152.164 40.2145C150.465 41.8545 148.323 42.6746 145.807 42.6746C143.802 42.6746 142.136 42.1279 140.776 41.0345C139.416 39.907 138.736 38.3353 138.736 36.3536C138.736 31.9802 141.558 29.486 147.201 29.486H151.315V28.3243C151.315 26.616 150.329 25.7618 148.289 25.7618C146.249 25.7618 145.263 26.4451 145.263 27.846H139.722C139.722 23.4726 142.68 20.6367 148.289 20.6367C153.898 20.6367 156.992 23.4726 156.992 27.9485V42.2304H153.728V42.1962ZM151.315 35.8069V33.4836H147.201C145.331 33.4836 144.414 34.1669 144.414 35.5678C144.414 36.7978 145.297 37.652 146.997 37.652C148.765 37.652 150.193 37.037 151.315 35.8069Z" fill="#453594"/>
<path d="M161.648 40.4869C159.982 39.0518 159.098 37.2068 159.064 34.9176H164.572C164.946 36.7285 166.373 37.6168 168.923 37.6168C170.623 37.6168 171.677 37.0701 171.677 36.1476C171.677 35.396 171.065 34.8493 169.841 34.5418L164.708 33.2093C161.308 32.3209 159.608 30.4417 159.608 27.5033C159.608 23.1983 162.736 20.6016 168.107 20.6016C173.24 20.6016 176.708 23.4374 176.878 27.9475H171.405C170.963 26.41 169.739 25.6583 167.733 25.6583C165.965 25.6583 165.116 26.1708 165.116 27.1958C165.116 27.7425 165.66 28.1867 166.781 28.4942L172.289 29.895C175.552 30.7492 177.184 32.6967 177.184 35.7035C177.184 40.0769 173.784 42.6736 168.413 42.6736C165.592 42.6736 163.382 41.9561 161.648 40.4869Z" fill="#453594"/>
<path d="M180.957 40.4869C179.291 39.0518 178.407 37.2068 178.373 34.9176H183.88C184.254 36.7285 185.682 37.6168 188.232 37.6168C189.931 37.6168 190.985 37.0701 190.985 36.1476C190.985 35.396 190.373 34.8493 189.15 34.5418L184.016 33.2093C180.617 32.3209 178.917 30.4417 178.917 27.5033C178.917 23.1983 182.045 20.6016 187.416 20.6016C192.549 20.6016 196.017 23.4374 196.187 27.9475H190.713C190.271 26.41 189.048 25.6583 187.042 25.6583C185.274 25.6583 184.424 26.1708 184.424 27.1958C184.424 27.7425 184.968 28.1867 186.09 28.4942L191.597 29.895C194.861 30.7492 196.493 32.6967 196.493 35.7035C196.493 40.0769 193.093 42.6736 187.722 42.6736C184.9 42.6736 182.656 41.9561 180.957 40.4869Z" fill="#453594"/>
<path d="M21.4512 0L42.9362 14.0085L32.1937 21.0128L21.4512 14.0085V0Z" fill="url(#paint0_linear)"/>
<path opacity="0.75" d="M21.4511 14.043L0 28.0173L10.7425 35.0216L21.4511 28.0173V14.043Z" fill="url(#paint1_linear)"/>
<path d="M21.4512 28.0164L42.9362 14.0078L42.9022 28.0164L21.4512 41.9907V28.0164Z" fill="url(#paint2_linear)"/>
<path d="M21.4511 42.0242L0 28.0156L0.0339953 42.0242L21.4511 55.9985V42.0242Z" fill="url(#paint3_linear)"/>
<defs>
<linearGradient id="paint0_linear" x1="20.9286" y1="6.80979" x2="39.204" y2="18.126" gradientUnits="userSpaceOnUse">
<stop stop-color="#DFCCF8"/>
<stop offset="1" stop-color="#B288E9"/>
</linearGradient>
<linearGradient id="paint1_linear" x1="22.9034" y1="19.3705" x2="5.32041" y2="31.7455" gradientUnits="userSpaceOnUse">
<stop stop-color="#8035E2"/>
<stop offset="0.4075" stop-color="#721FDF"/>
<stop offset="1" stop-color="#6003DB"/>
</linearGradient>
<linearGradient id="paint2_linear" x1="42.6131" y1="21.7433" x2="24.1394" y2="32.7296" gradientUnits="userSpaceOnUse">
<stop stop-color="#9960E2"/>
<stop offset="1" stop-color="#7F39DB"/>
</linearGradient>
<linearGradient id="paint3_linear" x1="20.1004" y1="47.9873" x2="1.93411" y2="36.4949" gradientUnits="userSpaceOnUse">
<stop stop-color="#8035E2"/>
<stop offset="1" stop-color="#6003DB"/>
</linearGradient>
</defs>
</svg>
